<svg xmlns="http://www.w3.org/2000/svg" version="1.1" xmlns:xlink="http://www.w3.org/1999/xlink" xmlns:svgjs="http://svgjs.dev/svgjs" width="1000" height="1125" viewBox="0 0 1000 1125"><g transform="matrix(1,0,0,1,0.00017081513067296328,0)"><svg viewBox="0 0 320 360" data-background-color="#ffffff" preserveAspectRatio="xMidYMid meet" height="1125" width="1000" xmlns="http://www.w3.org/2000/svg" xmlns:xlink="http://www.w3.org/1999/xlink"><g id="tight-bounds" transform="matrix(1,0,0,1,0.00005466084189720277,0)"><svg viewBox="0 0 320 360" height="360" width="320"><g><svg></svg></g><g><svg viewBox="0 0 320 360" height="360" width="320"><g><path transform="translate(-119.39272,-98.31927) scale(5.58313,5.58313)" d="M36.7 23.5c0-0.2 0.1-0.4 0.3-0.4 0.2 0 0.4 0.1 0.4 0.4 0.1 0 0.3 0 0.4-0.1 0.4 0 0.8-0.1 1.1 0 0.3 0.1 0.5 0.1 0.8 0.2 0.3 0.1 0.5 0 0.7-0.1 0.4-0.1 0.7-0.3 1.1-0.4 0.2-0.1 0.3-0.1 0.5-0.1 0.2-0.1 0.4-0.1 0.7-0.2 0.5-0.1 1-0.2 1.4-0.4 0.4-0.2 0.8-0.2 1.2-0.3 0.2 0 0.3-0.1 0.5-0.2 0.1 0 0.1-0.1 0.2-0.2 0.2-0.1 0.3-0.2 0.5-0.1 0.1 0.1 0.3 0.1 0.4 0h0.1c0.6 0 1.2-0.1 1.9 0 0.1 0 0.2 0 0.2 0 0.3-0.2 0.7-0.2 1.1-0.2 0.1 0 0.3 0 0.4 0h0.1c0.4 0 0.8 0 1.1 0.1 0.3 0 0.5 0.1 0.8 0.2 0.3 0 0.5 0 0.8 0.1 0.2 0 0.4 0 0.6 0 0.1 0 0.2 0 0.2 0 0.4 0.1 0.8 0.1 1.2 0.1 0.3 0.1 0.6 0.2 1 0.2 0.1 0 0.2 0 0.3 0 0.1 0 0.2 0.1 0.3 0.1l0.1 0.1c0.4 0 0.7 0.2 1.1 0.2 0.1 0 0.3 0 0.4 0.1 0.3 0.2 0.7 0.3 1.1 0.3 0.2 0 0.3 0.1 0.4 0.2 0.3 0.1 0.5 0.2 0.8 0.3 0.2 0.1 0.4 0 0.6 0.1 0.3 0.1 0.7 0.2 1 0.5 0.2 0.2 0.4 0.2 0.7 0.4 0.1 0 0.2 0.1 0.3 0.2 0.3 0.2 0.6 0.4 0.9 0.5 0.1 0 0.2 0.1 0.3 0.1 0.3 0.2 0.6 0.5 1 0.7 0.2 0.1 0.3 0.2 0.5 0.3h0.1c0.3 0.3 0.7 0.5 1 0.8 0.3 0.3 0.5 0.5 0.9 0.7 0 0 0 0 0 0.1 0.1 0.2 0.2 0.3 0.4 0.4 0.2 0.1 0.3 0.2 0.4 0.3 0.3 0.2 0.6 0.4 0.8 0.6 0.1 0.1 0.2 0.2 0.4 0.4 0.1 0.1 0.2 0.2 0.3 0.2 0.4 0.1 0.6 0.4 0.9 0.7 0.2 0.2 0.5 0.5 0.7 0.7 0.1 0.1 0.2 0.3 0.3 0.5 0.2 0.6 0.5 1.2 0.8 1.7 0 0 0 0.1 0.1 0.2v0.1c0.2 0.2 0.3 0.5 0.5 0.7 0.1 0.1 0.1 0.2 0.2 0.3 0.2 0.3 0.3 0.7 0.5 1 0.3 0.5 0.5 1 0.7 1.5v0.1c0.1 0.2 0.2 0.4 0.3 0.7 0 0.2 0.2 0.4 0.3 0.7 0.1 0.5 0.4 1 0.5 1.6 0 0.1 0.1 0.2 0.1 0.4 0.1 0.3 0.2 0.6 0.3 0.9 0 0.1 0.1 0.2 0.2 0.3 0.2 0.2 0.2 0.4 0.2 0.6-0.1 0.4 0 0.8 0.1 1.2 0 0.1 0 0.2 0 0.4 0.1 0.4 0.2 0.9 0.2 1.3 0 0.1 0 0.3 0 0.4 0 0.3 0.1 0.6 0.3 0.9 0 0.1 0.1 0.1 0.1 0.1 0.1 0.1 0.2 0.3 0.3 0.4 0.1 0.1 0.1 0.1 0.2 0.2 0.2 0.2 0.3 0.4 0.3 0.7 0 0.1-0.1 0.3-0.1 0.4 0 0.1 0 0.3 0.1 0.4 0.1 0.1 0.1 0.2 0.1 0.3 0 0.1-0.1 0.2-0.2 0.2v0c-0.1 0.3-0.5 0.4-0.6 0.7-0.1 0.4-0.2 0.8-0.3 1.2-0.1 0.3-0.1 0.5-0.1 0.8 0 0.3-0.1 0.5-0.1 0.8-0.1 0.4-0.2 0.8-0.3 1.2 0 0.2-0.1 0.4-0.1 0.6 0.1 0.1 0.2 0.2 0.3 0.2 0.2 0.2 0.4 0.4 0.6 0.6 0.1 0.1 0.1 0.2 0 0.2-0.1 0.1-0.2 0.1-0.3 0.1-0.1-0.1-0.3-0.2-0.4-0.2-0.1-0.1-0.3-0.2-0.5-0.1 0 0.2-0.1 0.4-0.1 0.5-0.1 0.2-0.2 0.5-0.2 0.7-0.1 0.4-0.3 0.7-0.4 1.1-0.2 0.5-0.4 0.9-0.6 1.3-0.1 0.2-0.2 0.4-0.3 0.6v0c0 0.3-0.3 0.6-0.4 0.9-0.2 0.4-0.4 0.8-0.6 1.3-0.1 0.2-0.2 0.4-0.3 0.5-0.2 0.5-0.4 0.9-0.7 1.3-0.2 0.3-0.4 0.5-0.6 0.6-0.2 0.2-0.4 0.4-0.6 0.6-0.1 0.1-0.2 0.2-0.3 0.3-0.1 0.1-0.1 0.1-0.2 0.2-0.2 0.3-0.5 0.5-0.7 0.8-0.2 0.2-0.3 0.4-0.6 0.6-0.2 0.2-0.4 0.5-0.7 0.6-0.1 0.1-0.2 0.3-0.3 0.4-0.1 0.1-0.2 0.3-0.3 0.4 0 0.2 0.1 0.4 0.1 0.5 0 0.3-0.3 0.4-0.5 0.2-0.3-0.2-0.3-0.2-0.6 0-0.3 0.2-0.6 0.5-1 0.6-0.1 0-0.1 0.1-0.2 0.1-0.2 0.1-0.3 0.3-0.5 0.4-0.2 0.2-0.5 0.3-0.7 0.5-0.1 0.1-0.2 0.1-0.3 0.2-0.3 0.2-0.6 0.3-0.9 0.6-0.1 0.1-0.2 0.1-0.3 0.2 0 0.1 0 0.1 0 0.2 0 0.2-0.2 0.4-0.5 0.3-0.3-0.1-0.5 0-0.8 0-0.3 0.1-0.6 0.3-0.9 0.4-0.1 0-0.2 0.1-0.3 0.2-0.3 0.2-0.6 0.3-0.9 0.4-0.2 0-0.4 0.2-0.6 0.2-0.1 0-0.2 0.1-0.3 0.1h-0.1c-0.4 0.3-0.8 0.5-1.2 0.8-0.1 0-0.1 0.1-0.2 0.2-0.1 0.2-0.2 0.3-0.4 0.3-0.5 0-0.7 0.4-0.6 0.8 0 0.1 0.1 0.2 0.1 0.3 0.1 0.2 0 0.4-0.1 0.5-0.1 0.1-0.4 0.1-0.5-0.1-0.2-0.2-0.3-0.4-0.4-0.7-0.1-0.2-0.3-0.4-0.5-0.5-0.2-0.1-0.4-0.1-0.6 0-0.1 0-0.1 0.1-0.2 0.1-0.2 0.2-0.5 0.3-0.8 0.2-0.1 0-0.3 0-0.3 0.1-0.1 0.1-0.1 0.3 0 0.4 0.2 0.2 0.1 0.4 0.1 0.7 0 0.4-0.3 0.6-0.7 0.4-0.1-0.1-0.2-0.1-0.3-0.2-0.1 0-0.1-0.1-0.1-0.2-0.1-0.1-0.1-0.3-0.2-0.5-0.2 0.1-0.4 0.1-0.6 0.2-0.1 0-0.2 0.1-0.3 0.1-0.3 0-0.4 0-0.5-0.3-0.1-0.3-0.3-0.3-0.5-0.4-0.4-0.1-0.9-0.1-1.3-0.3h-0.1c-0.4-0.3-0.8-0.3-1.3-0.3-0.3 0-0.6 0.1-0.9 0.1-0.3 0-0.5 0.1-0.7 0.3-0.1 0.1-0.2 0.2-0.3 0.2-0.1-0.1-0.1-0.2-0.2-0.3v-0.1c0-0.1-0.1-0.2-0.2-0.1-0.2 0.1-0.4-0.1-0.6-0.2-0.1-0.1-0.3-0.3-0.3-0.5-0.1-0.1-0.2-0.2-0.3-0.2-0.2 0-0.5-0.1-0.7-0.1-0.1 0-0.2 0-0.2-0.1-0.1-0.1-0.2-0.1-0.4-0.1-0.1 0-0.1-0.1-0.2-0.1 0.2 0.2 0.3 0.4 0.4 0.6 0 0.1 0.1 0.1 0.1 0.2 0.1 0.2 0 0.3-0.3 0.3-0.2 0-0.2 0-0.3 0.1 0 0.2 0 0.3 0 0.5 0 0.1 0 0.2-0.2 0.3 0 0-0.1 0-0.1 0.1-0.1 0.1-0.1 0.2 0 0.3 0.3 0.2 0.5 0.3 0.8 0.4 0.3 0 0.3 0.2 0.4 0.4 0.1 0.2 0 0.3-0.1 0.5-0.2 0.2-0.4 0.4-0.6 0.6-0.3 0.1-0.5 0.4-0.8 0.4-0.2 0-0.4-0.1-0.5-0.3-0.1-0.5-0.1-0.9 0.1-1.4 0-0.1 0.1-0.2 0-0.3-0.9 0-0.9-0.2-0.9-0.3 0-0.2 0.1-0.3 0.1-0.5 0.1-0.2 0-0.3-0.3-0.4-0.1 0-0.2 0-0.3 0-0.1 0-0.1-0.1-0.3-0.1 0.2-0.1 0.3-0.1 0.5-0.2-0.1-0.4-0.2-0.7-0.5-0.9-0.1-0.1-0.2-0.2-0.2-0.4 0-0.3-0.2-0.5-0.3-0.7-0.2-0.3-0.6-0.4-0.9-0.4-0.3-0.1-0.5-0.1-0.8-0.2-0.3-0.1-0.6-0.4-0.9-0.5-0.1-0.1-0.2-0.2-0.4-0.3-0.4-0.2-0.7-0.5-1-0.8-0.2-0.1-0.3-0.3-0.5-0.4-0.2-0.2-0.3-0.4-0.5-0.5-0.2-0.2-0.4-0.4-0.7-0.6-0.3-0.2-0.5-0.5-0.8-0.8-0.2-0.3-0.5-0.5-0.8-0.7-0.1 0-0.2 0-0.3 0-0.1 0-0.2 0.1-0.3 0.1-0.3 0.1-0.5 0.3-0.8 0.4 0.1-0.1 0.1-0.1 0-0.3-0.1-0.1-0.2-0.2-0.3-0.2-0.2 0-0.4 0-0.6 0-0.4 0-0.8 0.1-1.2 0.1-0.3 0-0.7 0.1-1 0.2 0.1 0.2 0.1 0.3 0.2 0.5-0.2 0.1-0.4 0.1-0.6 0.1-0.1 0-0.3 0.1-0.4 0.2-0.1 0-0.1 0.1-0.2 0-0.2-0.1-0.4 0-0.6 0.1h-0.1c0 0 0-0.1 0.1-0.1 0.1-0.1 0.2-0.2 0.3-0.3 0.1-0.1 0.2-0.1 0.4-0.2-0.1-0.1-0.1-0.2-0.1-0.2-0.1-0.1-0.2-0.1-0.3 0-0.1 0.1-0.2 0.2-0.3 0.3-0.1 0.1-0.2 0.1-0.3 0-0.1-0.1-0.1-0.2 0-0.3 0-0.1 0.1-0.2 0.2-0.3 0.1-0.1 0.1-0.2 0.2-0.3-0.2-0.2-0.3-0.4-0.5-0.5-0.3-0.2-0.6-0.5-0.8-0.8-0.2-0.4-0.5-0.7-0.9-0.9-0.1-0.1-0.2-0.2-0.3-0.3-0.1-0.1-0.1-0.1-0.2-0.2-0.3 0.1-0.5 0.3-0.8 0.4-0.1 0-0.1 0.1-0.2 0.2-0.1 0.2-0.3 0.2-0.5 0.2-0.1 0-0.2-0.1-0.1-0.2 0.1-0.2 0.2-0.4 0.5-0.3 0 0 0.1 0 0.1-0.1 0.2-0.2 0.4-0.5 0.7-0.7-0.1-0.3-0.3-0.5-0.4-0.7-0.1-0.1-0.1-0.2-0.1-0.4 0-0.1 0-0.1-0.1-0.2 0 0-0.1 0-0.2 0.1-0.1 0.1-0.3 0.2-0.5 0 0-0.1 0-0.2 0.1-0.3l0.1-0.1c0.3-0.1 0.3-0.4 0.3-0.7v-0.1c-0.1-0.2-0.1-0.3 0.1-0.5 0.3-0.2 0.6-0.6 0.7-0.9 0.1-0.2 0.3-0.3 0.5-0.5 0.2-0.2 0.4-0.4 0.5-0.7h0.1c0.4 0.1 0.5-0.2 0.7-0.5 0-0.1 0-0.2 0.1-0.2 0.2-0.2 0.2-0.4 0.1-0.7 0-0.1-0.1-0.3-0.1-0.4 0-0.1 0-0.1-0.1-0.2-0.3-0.2-0.3-0.4 0-0.6 0.2-0.1 0.2-0.3 0.3-0.4 0.1-0.2 0.1-0.4 0.1-0.7-0.1-0.3-0.1-0.7-0.2-1-0.1-0.4-0.2-0.9-0.3-1.3 0-0.1 0-0.1 0-0.2 0-0.3 0-0.5-0.1-0.8-0.1-0.1-0.1-0.3-0.1-0.4-0.1-0.3-0.2-0.5-0.5-0.6-0.3-0.2-0.7-0.3-1-0.5-0.1-0.1-0.2 0-0.3 0.1-0.1 0.2-0.3 0.4-0.4 0.6-0.1 0.1-0.2 0.3-0.3 0.5-0.2 0.2-0.6 0.4-0.9 0.1-0.1-0.2-0.2-0.3 0-0.5 0.2-0.3 0.4-0.6 0.7-0.8 0.1-0.1 0.2-0.3 0.3-0.4 0.1-0.2 0.1-0.4 0.1-0.6-0.1-0.4-0.2-0.8-0.2-1.3 0-0.5 0-0.9 0.1-1.4 0.1-0.2 0.1-0.5 0.2-0.7 0-0.1 0.1-0.3 0.2-0.4 0.2-0.2 0.4-0.4 0.5-0.7 0.1-0.3 0.3-0.6 0.3-0.9 0-0.1 0.1-0.2 0.1-0.3 0-0.1 0.1-0.3 0.1-0.4-0.1-0.3 0-0.5 0.1-0.7 0.1-0.2 0.2-0.5 0.3-0.7 0.2-0.4 0.2-0.9 0.6-1.3 0.1-0.2 0.2-0.4 0.3-0.6 0.1-0.4 0.3-0.7 0.5-1 0.1-0.1 0.1-0.1 0.1-0.2 0.1-0.3 0.3-0.6 0.5-0.9 0.2-0.3 0.2-0.6 0.3-0.9 0-0.1 0-0.2 0.1-0.3 0.3-0.3 0.2-0.7 0.1-1.1-0.2-0.5-0.3-1-0.2-1.5 0-0.1 0-0.2 0.1-0.2 0.1-0.2 0.1-0.3 0.2-0.5v-0.1c0.2-0.2 0.4-0.5 0.7-0.6 0.4-0.2 0.8-0.3 1.3-0.4 0.4 0 0.8-0.2 1.1-0.6 0-0.1 0.1-0.1 0.2-0.2l0.1-0.1c0.1-0.2 0.2-0.3 0.3-0.4 0.2-0.2 0.4-0.5 0.6-0.7 0.2-0.2 0.4-0.5 0.7-0.8l0.1-0.1c0.2-0.2 0.4-0.4 0.6-0.5 0.2-0.2 0.4-0.4 0.6-0.6 0.2-0.2 0.3-0.4 0.5-0.6 0.2-0.1 0.4-0.3 0.6-0.5 0.2-0.2 0.4-0.4 0.5-0.5 0.2-0.2 0.5-0.4 0.7-0.5 0.2-0.1 0.4-0.2 0.5-0.5 0.1-0.3 0.2-0.5 0.3-0.8 0-0.2 0.1-0.4 0.2-0.6 0.1 0 0.2 0 0.4-0.1-0.1-0.1-0.2-0.1-0.2-0.2 0-0.1 0.1-0.2 0.1-0.2 0-0.1 0.1-0.2 0.1-0.3 0 0 0.1 0 0.1-0.1 0 0 0.1 0 0.1-0.1-0.2 0.1-0.3 0-0.4-0.1 0.1 0.1 0.2 0.1 0.4 0.2 0 0 0.1 0 0.1-0.1 0-0.1 0-0.2 0-0.2 0 0-0.1 0-0.2 0-0.1 0-0.2 0.1-0.3 0.1zM54 70.5c0-0.1-0.1-0.1-0.1-0.2-0.1-0.2 0-0.3 0.1-0.4 0.1-0.1 0.2-0.1 0.4-0.1 0.2 0.1 0.3 0.2 0.3 0.4 0 0.1 0 0.3 0 0.4 0.1 0.4 0.1 0.4 0.5 0.4 0.2 0 0.4 0 0.6 0 0.4-0.1 0.8-0.3 1.2-0.4 0.4-0.1 0.8-0.2 1.2-0.3 0.1 0 0.2 0 0.4 0 0.4 0.1 0.7 0 1-0.2 0.1-0.1 0.3-0.1 0.4-0.2 0.2-0.1 0.4-0.1 0.6-0.2 0.5-0.3 1-0.5 1.4-0.8 0.3-0.2 0.6-0.4 0.9-0.6 0.3-0.2 0.6-0.4 0.9-0.6 0.2-0.1 0.5-0.3 0.7-0.5 0.4-0.3 0.7-0.6 1.1-0.8 0.2-0.1 0.3-0.2 0.4-0.3 0.2-0.1 0.3-0.3 0.5-0.4 0.1-0.1 0.2-0.2 0.4-0.3 0.1-0.1 0.1-0.1 0.1-0.2 0.3-0.2 0.6-0.6 0.8-0.9 0.2-0.2 0.4-0.4 0.6-0.7 0.3-0.3 0.5-0.7 0.8-1.1 0.2-0.2 0.4-0.5 0.5-0.7 0.2-0.4 0.4-0.8 0.7-1.1v-0.1c0.2-0.4 0.4-0.8 0.6-1.2 0.3-0.5 0.5-1.1 0.8-1.6 0.1-0.2 0.2-0.4 0.2-0.6 0.2-0.4 0.3-0.8 0.4-1.2 0-0.1 0-0.1 0.1-0.2 0.3-0.6 0.5-1.2 0.6-1.9 0.1-0.4 0.2-0.8 0.3-1.2 0.2-0.6 0.2-1.1 0.3-1.7 0.1-0.4 0.1-0.9 0.1-1.3 0.1-0.6 0.1-1.3 0-1.9 0-0.5-0.1-1.1-0.1-1.6 0-0.5-0.1-0.9-0.2-1.4-0.1-0.5-0.2-0.9-0.3-1.4-0.2-0.4-0.3-0.8-0.4-1.3-0.1-0.4-0.3-0.7-0.3-1.1 0-0.3-0.1-0.6-0.4-0.7-0.3-0.1-0.5-0.2-0.8-0.4-0.6-0.4-0.9-0.9-0.8-1.5 0-0.3 0.1-0.7 0.2-1 0.1-0.3 0.2-0.6 0-0.8-0.1-0.3-0.3-0.5-0.4-0.7-0.2-0.3-0.3-0.5-0.5-0.7-0.2-0.4-0.4-0.8-0.7-1.1-0.4-0.5-0.7-1-1.2-1.4l-0.1-0.1c-0.3-0.4-0.6-0.8-1-1.1-0.2-0.2-0.4-0.4-0.6-0.5-0.1-0.1-0.2-0.2-0.4-0.3-0.3-0.2-0.6-0.3-0.8-0.5-0.3-0.3-0.7-0.5-1-0.7 0 0-0.1 0-0.1-0.1-0.4-0.2-0.7-0.3-1.1-0.5-0.4-0.2-0.8-0.3-1.2-0.3-0.1 0-0.1 0-0.2 0-0.1-0.1-0.3-0.1-0.4-0.1-0.1 0-0.1 0-0.2 0-0.2-0.1-0.5 0-0.7 0-0.4 0.1-0.8 0.1-1.2-0.1-0.5-0.2-0.9-0.4-1.3-0.6-0.3-0.2-0.5-0.4-0.8-0.6-0.6-0.5-1.2-1.1-1.9-1.6 0.1-0.5-0.1-0.6-0.5-0.6-0.2 0-0.4 0.1-0.6 0.2-0.1 0.1-0.1 0.1-0.2 0.2-0.3 0.2-0.5 0.5-0.8 0.7-0.5 0.3-0.7 0.2-1.1 0-0.1-0.1-0.2-0.2-0.3-0.3-0.2-0.2-0.4-0.5-0.5-0.7-0.2-0.4-0.6-0.4-1-0.4-0.2 0-0.5 0.1-0.7 0.1-0.4 0-0.8 0.2-1 0.5-0.2 0.3-0.4 0.6-0.7 0.9-0.1 0.1-0.3 0.2-0.4 0.4-0.2 0.2-0.4 0.2-0.6 0-0.1-0.1-0.2-0.1-0.3-0.2-0.1 0.1-0.2 0.2-0.2 0.3-0.1 0.2-0.2 0.4-0.3 0.7-0.1 0.3-0.3 0.6-0.5 0.8-0.1 0.1-0.1 0.1-0.2 0.2-0.1 0.2-0.4 0.3-0.6 0.3-0.2 0.2-0.4 0.5-0.5 0.7-0.1 0.2-0.2 0.4-0.3 0.7-0.1 0.1-0.1 0.3-0.2 0.4-0.1 0.2-0.1 0.3-0.1 0.5 0.1 0.3-0.1 0.4-0.4 0.5-0.2 0-0.2 0-0.3 0.2 0 0.3 0.1 0.5 0.2 0.8 0.1 0.1 0.2 0.3 0.2 0.4 0 0.2 0.1 0.3 0.3 0.4 0.1 0.1 0.2 0.2 0.3 0.2 0.1 0 0.1 0.1 0.2 0.1 0.1 0.1 0.2 0 0.2-0.1 0.1-0.3 0.2-0.6 0.2-0.9 0.1-0.4 0.1-0.7 0.2-1.1 0.1-0.2 0.2-0.3 0.3-0.4 0 0 0.1 0 0.2 0v0.1c-0.1 0.5-0.3 1.1-0.4 1.6-0.1 0.2-0.1 0.4-0.2 0.6 0 0.1-0.1 0.2-0.2 0.2-0.2 0.1-0.4 0.2-0.6 0.2-0.1 0-0.2 0-0.3 0-0.2-0.1-0.4-0.3-0.6-0.4-0.1-0.1-0.2-0.2-0.3-0.3-0.1-0.2-0.2-0.4-0.3-0.6-0.1-0.2-0.2-0.3-0.4-0.4-0.1-0.1-0.2-0.1-0.3-0.2-0.2-0.2-0.4-0.3-0.7-0.3-0.1 0-0.3 0-0.4 0-0.1 0-0.3 0.1-0.4 0.2-0.2 0.1-0.3 0.1-0.5 0-0.5-0.2-1-0.1-1.5 0.1-0.2 0.1-0.4 0.2-0.6 0.2-0.5 0-0.9 0-1.4 0-0.5 0-0.9-0.1-1.4-0.2-0.2 0-0.4 0-0.6 0-0.4 0.1-0.5 0.4-0.4 0.8 0.1 0.4 0.2 0.9 0.2 1.3 0 0.3 0 0.6 0 0.9 0 0.2 0 0.3 0 0.5 0 0.3-0.1 0.6-0.1 0.9-0.1 0.6-0.4 1.1-0.8 1.5-0.3 0.3-0.7 0.6-1.1 0.7-0.2 0.1-0.4 0.2-0.7 0.3-0.5 0.2-0.9 0.6-1.2 1.1-0.1 0.2-0.2 0.4-0.3 0.6-0.2 0.3-0.3 0.5-0.5 0.8-0.1 0.2-0.3 0.4-0.4 0.6-0.1 0.2-0.3 0.3-0.3 0.5-0.2 0.4-0.3 0.8-0.5 1.2-0.1 0.2-0.1 0.5-0.2 0.7-0.2 0.4-0.2 0.8-0.2 1.3 0 0.1 0 0.2 0 0.4 0 0.5-0.1 1.1-0.1 1.6 0 0.5 0 1 0.1 1.5 0 0.2 0 0.5 0 0.7 0 0.4 0.1 0.9 0.1 1.3 0 0.4 0 0.9 0.2 1.3v0.1c0.1 0.4 0.1 0.8 0.2 1.2 0 0.1 0 0.2 0.1 0.3 0.2 0.6 0.3 1.1 0.5 1.7 0.1 0.4 0.3 0.8 0.4 1.2 0.1 0.4 0.5 0.8 0.6 1.3v0c0.3 0.6 0.6 1.2 1 1.8 0.1 0.2 0.3 0.4 0.4 0.6 0.2 0.3 0.3 0.6 0.5 0.8 0.1 0.2 0.3 0.4 0.4 0.5 0.1 0.2 0.2 0.4 0.4 0.6 0.2 0.2 0.4 0.5 0.6 0.7 0.3 0.5 0.7 0.9 1.1 1.2 0.2 0.2 0.4 0.3 0.6 0.5 0.1 0.1 0.2 0.1 0.2 0.2 0.1 0.1 0.2 0.2 0.4 0.3 0.8 0.4 1.4 1 2.1 1.6 0.3 0.3 0.6 0.6 1 0.8 0.4 0.3 0.7 0.6 1.2 0.7 0 0 0.1 0 0.1 0.1 0.2 0.2 0.5 0.3 0.7 0.4 0.4 0.2 0.9 0.4 1.3 0.6 0.1 0.1 0.3 0.1 0.4 0.2 0.3 0.1 0.6 0.2 0.9 0.3 0.3 0.1 0.5 0.2 0.8 0.2h0.1c0.2 0.1 0.3 0.1 0.5 0 0.1 0 0.2 0 0.2 0.1 0 0.1 0.1 0.1 0.2 0.1 0.1 0 0.2 0 0.4 0 0.1-0.1 0.1-0.2 0.2-0.4 0.1 0.1 0.2 0.1 0.2 0.1 0.1 0.2 0.3 0.2 0.5 0.2h0.1c0.2 0 0.3 0 0.4-0.1 0-0.1 0.2-0.1 0.3-0.1 0.3 0.1 0.6 0.1 0.9 0.2 0.2 0.1 0.5 0.1 0.6-0.1 0.1-0.1 0.2-0.2 0.4-0.1 0.2 0.1 0.3 0.1 0.5 0 0.1 0 0.2 0 0.2 0 0.3 0.1 0.5 0.1 0.8 0.2 0.4 0.1 0.4 0.1 0.7-0.2 0.1-0.1 0.3-0.1 0.4 0 0.1 0.2 0.1 0.3 0.1 0.5 0.1 0 0.1 0 0.2-0.1 0-0.2 0.1-0.2 0.3-0.3 0.1 0.1 0.1 0.1 0.2 0.1 0.2 0.2 0.3 0.2 0.4-0.1 0-0.1 0-0.2 0.1-0.2 0.1 0 0.2 0.1 0.2 0.1 0.1 0.2 0.3 0.3 0.4 0.5 0.2 0.2 0.5 0.2 0.6 0 0.1-0.1 0.2-0.1 0.3-0.1 0-0.1 0-0.2 0-0.3 0.3 0.2 0.2 0.2 0.1 0.2zM37.4 23.8c0.3 0.1 0.5 0.1 0.6-0.1-0.2 0.1-0.4-0.1-0.6 0.1z" fill="#ee3e38" fill-rule="nonzero" stroke="none" stroke-width="1" stroke-linecap="butt" stroke-linejoin="miter" stroke-miterlimit="10" stroke-dasharray="" stroke-dashoffset="0" font-family="none" font-weight="none" font-size="none" text-anchor="none" style="mix-blend-mode: normal" data-fill-palette-color="tertiary"></path></g><g transform="matrix(1,0,0,1,70.06281791021055,90)"><svg viewBox="0 0 179.8743641795789 180" height="180" width="179.8743641795789"><g><svg viewBox="0 0 192 192.13410514405916" height="180" width="179.8743641795789"><g transform="matrix(1,0,0,1,0,126.79827486440631)"><svg viewBox="0 0 192 65.33583027965284" height="65.33583027965284" width="192"><g id="textblocktransform"><svg viewBox="0 0 192 65.33583027965284" height="65.33583027965284" width="192" id="textblock"><g><svg viewBox="0 0 192 65.33583027965284" height="65.33583027965284" width="192"><path d="M191.55 14.013C190.648 7.231 188.075 5.346 188.075 5.346 180.177-1.639 170.321-0.134 161.466 0.87 145.832 0.911 130.262 2.403 114.664 3.203 81.926 3.325 48.907 1.318 16.331 6.268 13.271 7.788-3.175 6.567 0.544 14.881 1.519 18.34 5.075 22.179 4.967 25.353 5.455 25.909 6.132 24.634 6.42 25.434 7.431 27.591 9.083 26.573 10.437 27.848 8.551 31.253 9.905 34.088 11.195 37.058 8.921 37.831 6.005 37.465 4.696 40.028 4.561 41.887 3.83 41.534 3.027 41.453 2.44 41.398 1.257 41.602 1.456 42.185 2.133 44.179-0.774 45.332 1.05 47.285-0.205 49.401 1.916 51.232 1.627 53.524 1.591 53.985 1.79 54.379 2.106 54.487 3.505 55.071 1.465 56.21 1.682 57.444 16.033 65.881 31.604 60.048 46.308 63.928 50.126 61.215 47.256 64.891 48.781 64.321 49.972 63.656 50.839 66.41 52.184 64.85 52.392 64.402 52.076 63.344 52.816 63.548 53.204 63.656 53.547 63.629 53.601 63.005 53.682 62.069 52.969 62.653 52.78 62.164 54.829 59.696 54.323 65.569 56.246 65.325 56.156 64.606 55.596 63.575 56.742 63.711 57.88 62.68 57.916 61.825 58.927 64.145 58.963 64.646 59.143 64.999 59.432 65.243 62.591 62.72 65.732 66.138 69.045 64.999 71.076 63.751 73.026 65.677 75.084 65.203 75.806 64.823 76.537 64.145 77.232 65.284 85.744 65.528 94.815 64.511 102.885 65.325 124.449 63.806 147.493 65.949 170.23 63.941 175.592 63.168 181.161 62.069 186.387 61.188 186.387 61.188 190.621 58.773 190.621 47.922S191.523 38.428 191.659 29.788C191.794 21.148 192.426 20.795 191.523 14.013Z" opacity="1" fill="#ee3e38" data-fill-palette-color="tertiary"></path><g transform="matrix(1,0,0,1,27.072000000000003,19.1)"><svg width="137.856" viewBox="1.83 -38.6 202.53 39.870000000000005" height="27.13583027965284" data-palette-color="#ffffff"><path d="M10.99 0.49L10.99 0.49Q9.38 0.49 8.13-0.29L8.13-0.29Q6.88 0.49 5.82 0.49 4.76 0.49 4.08 0.31 3.39 0.12 2.88-0.2L2.88-0.2Q1.83-0.83 1.83-1.78L1.83-1.78Q1.83-2.27 2.1-2.64L2.1-2.64Q2.64-2.22 3.47-2.22L3.47-2.22Q5.64-2.22 6.47-4.08L6.47-4.08 6.47-16.02Q6.47-17.14 6.01-17.68L6.01-17.68Q5.27-18.58 3.49-19.46L3.49-19.46Q5.15-20.21 5.64-20.8L5.64-20.8Q6.47-21.75 6.47-22.95L6.47-22.95 6.47-33.25Q5.64-35.13 3.47-35.13L3.47-35.13Q2.64-35.13 2.1-34.72L2.1-34.72Q1.83-35.08 1.83-35.56 1.83-36.04 2.11-36.45 2.39-36.87 2.88-37.16L2.88-37.16Q4-37.84 5.46-37.84 6.91-37.84 8.13-37.04L8.13-37.04Q9.4-37.84 10.83-37.84 12.26-37.84 13.48-37.23L13.48-37.23Q16.36-38.09 18.82-38.09 21.29-38.09 23.19-37.82 25.1-37.55 26.83-36.88 28.56-36.21 30.09-35.08 31.62-33.96 32.81-32.28L32.81-32.28Q35.35-28.74 36.06-22.9L36.06-22.9Q36.21-21.46 36.67-20.87L36.67-20.87Q37.45-19.92 38.79-19.46L38.79-19.46Q37.38-18.92 36.94-18.36L36.94-18.36Q36.21-17.43 36.06-16.02L36.06-16.02Q35.25-7.91 30.62-3.52L30.62-3.52Q26.15 0.73 19.02 0.73L19.02 0.73Q16.16 0.73 13.89-0.15L13.89-0.15Q12.79 0.49 10.99 0.49ZM15.45-34.25L15.45-3.83Q16.63-2.51 18.57-2.51 20.51-2.51 21.94-3.28 23.36-4.05 24.34-5.66L24.34-5.66Q26.32-8.96 26.32-16.02L26.32-16.02Q26.32-17.55 25.83-18.12L25.83-18.12Q25.17-18.9 23.66-19.46L23.66-19.46Q25.15-19.97 25.59-20.48L25.59-20.48Q26.32-21.36 26.32-22.72 26.32-24.07 26.12-25.42 25.93-26.76 25.5-28.08 25.07-29.39 24.43-30.6 23.78-31.81 22.88-32.74L22.88-32.74Q20.9-34.77 18.21-34.77L18.21-34.77Q17.38-34.77 16.6-34.73 15.82-34.69 15.45-34.25L15.45-34.25ZM27.59-30.52L27.59-30.52Q29.42-25.42 29.42-21.78L29.42-21.78Q29.42-20.53 29.21-20.31 29-20.09 28.76-19.92L28.76-19.92Q28.32-19.63 27.81-19.46L27.81-19.46Q29.27-18.8 29.35-18.19L29.35-18.19Q29.39-17.92 29.39-17.65L29.39-17.65 29.39-17.04Q29.39-13.75 28.71-10.66 28.03-7.57 27.69-6.47L27.69-6.47Q28.78-6.79 29.28-7.92 29.79-9.06 30.14-10.36 30.49-11.67 30.71-13.13L30.71-13.13Q31.2-16.14 31.2-19.41L31.2-19.41Q31.2-25.27 29.47-28.86L29.47-28.86Q28.71-30.27 27.59-30.52ZM8.81-9.64L8.81-6.47Q10.03-6.93 10.16-9.67L10.16-9.67Q10.3-12.4 10.3-17.24 10.3-22.07 10.29-23.67 10.28-25.27 10.25-26.25L10.25-26.25Q10.18-29.13 9.7-29.72 9.23-30.32 8.81-30.52L8.81-30.52Q8.81-22.02 8.52-20.85L8.52-20.85Q8.18-19.87 6.86-19.46L6.86-19.46Q8.33-18.95 8.52-18.21L8.52-18.21Q8.81-17.04 8.81-9.64L8.81-9.64ZM41.72-0.17L41.72-0.17Q40.82 0.49 39.66 0.49 38.5 0.49 37.8-0.11 37.11-0.71 37.11-1.49 37.11-2.27 37.35-2.64L37.35-2.64Q38.06-2.22 39.1-2.22 40.13-2.22 40.66-2.5 41.18-2.78 41.67-3.27L41.67-3.27 45.14-13.55 45.63-15.23Q45.85-15.99 45.85-16.63L45.85-16.63Q45.85-18.85 43.75-19.46L43.75-19.46Q45.68-20.19 46.46-21.04L46.46-21.04Q47.68-22.39 48.39-24.58L48.39-24.58 51.07-33.59Q50.29-34.64 49.22-34.64 48.14-34.64 47.21-34.18L47.21-34.18Q46.97-34.62 46.97-35.17 46.97-35.72 47.2-36.21 47.43-36.69 47.85-37.06L47.85-37.06Q48.78-37.84 50.49-37.84 52.19-37.84 53.39-36.82L53.39-36.82Q54.61-37.84 56.43-37.84 58.25-37.84 59.32-36.87L59.32-36.87Q60.89-37.84 62.5-37.84 64.11-37.84 65-37.23 65.89-36.62 65.89-35.57L65.89-35.57Q65.89-35.08 65.6-34.72L65.6-34.72Q65.04-35.13 64.28-35.13L64.28-35.13Q62.64-35.13 62.16-32.91L62.16-32.91 65.28-22.92Q65.87-21.04 68.21-20L68.21-20Q68.87-19.7 69.55-19.46L69.55-19.46Q67.11-18.65 67.11-17.04L67.11-17.04Q67.11-16.43 67.31-15.97L67.31-15.97 71.97-3.47Q73.04-2.34 74.14-2.34 75.24-2.34 75.85-2.76L75.85-2.76Q76.12-2.56 76.12-2.03 76.12-1.49 75.95-1.04 75.78-0.59 75.41-0.24L75.41-0.24Q74.63 0.49 73.12 0.49 71.6 0.49 70.48-0.34L70.48-0.34Q69.21 0.49 67.61 0.49 66.01 0.49 64.87-0.32L64.87-0.32Q63.77 0.49 62.28 0.49 60.79 0.49 59.81-0.13 58.84-0.76 58.79-1.9L58.79-1.9Q58.79-2.59 59.06-2.76L59.06-2.76Q59.71-2.34 60.4-2.34L60.4-2.34Q61.84-2.34 62.42-2.93L62.42-2.93 60.57-9.16 47.36-9.16 45.75-3.76Q46.75-2.22 48.18-2.22 49.61-2.22 50.31-2.64L50.31-2.64Q50.58-2.2 50.58-1.43 50.58-0.66 49.83-0.09 49.07 0.49 47.87 0.49 46.68 0.49 45.68-0.12L45.68-0.12Q44.8 0.49 43.66 0.49 42.53 0.49 41.72-0.17ZM48.34-12.45L59.57-12.45 53.9-31.27 48.34-12.45ZM62.96-10.03L64.23-6.47Q64.67-6.47 64.67-7.45L64.67-7.45Q64.67-9.16 64.16-10.77L64.16-10.77 63.23-13.62Q62.25-16.85 62.25-17.68L62.25-17.68Q62.23-19.04 63.45-19.48L63.45-19.48Q61.77-19.82 61.4-20.53L61.4-20.53Q61.23-20.83 61.12-21 61.01-21.17 60.9-21.4 60.79-21.63 60.64-22 60.5-22.36 60.25-23.05L60.25-23.05 58.74-27.61Q58.2-29.32 57.15-30.2L57.15-30.2Q56.83-30.47 56.56-30.52L56.56-30.52Q58.2-24.61 58.71-22.95L58.71-22.95Q62.25-12.06 62.96-10.03L62.96-10.03ZM71.48-4.13L71.43-4.27 71.48-4.13ZM80.61-0.17L80.61-0.17Q79.71 0.49 78.55 0.49 77.39 0.49 76.69-0.11 76-0.71 76-1.49 76-2.27 76.24-2.64L76.24-2.64Q76.95-2.22 78.47-2.22 80-2.22 81-4.3L81-4.3 81-16.02Q81-17.16 80.51-17.72L80.51-17.72Q79.78-18.6 78.02-19.46L78.02-19.46Q79.8-20.31 80.27-20.87L80.27-20.87Q81-21.8 81-22.95L81-22.95 81-33.25Q80.17-35.13 78-35.13L78-35.13Q77.17-35.13 76.63-34.72L76.63-34.72Q76.36-35.08 76.36-35.57 76.36-36.06 76.61-36.47 76.85-36.89 77.24-37.21L77.24-37.21Q78.1-37.84 79.55-37.84 81-37.84 82.03-37.04L82.03-37.04Q82.71-37.84 83.91-37.84 85.1-37.84 85.83-37.01L85.83-37.01Q86.54-37.84 87.29-37.84 88.03-37.84 88.41-37.7 88.79-37.55 89.06-37.3L89.06-37.3Q89.45-36.99 89.94-36.06L89.94-36.06 105.07-8.79 105.07-16.24Q105.07-17.31 104.61-17.82L104.61-17.82Q103.9-18.58 102.09-19.46L102.09-19.46Q103.78-20.29 104.27-20.8L104.27-20.8Q105.07-21.66 105.07-22.71L105.07-22.71 105.07-32.93Q104.51-33.96 103.69-34.55 102.88-35.13 101.84-35.13 100.8-35.13 100.09-34.72L100.09-34.72Q99.82-35.16 99.82-35.93 99.82-36.69 100.58-37.27 101.34-37.84 102.56-37.84 103.78-37.84 104.73-37.21L104.73-37.21Q105.59-37.84 106.7-37.84 107.81-37.84 108.66-37.18L108.66-37.18Q109.61-37.84 110.76-37.84 111.91-37.84 112.6-37.24 113.3-36.65 113.3-35.86 113.3-35.08 113.06-34.72L113.06-34.72Q112.35-35.13 110.79-35.13 109.22-35.13 108.3-33.03L108.3-33.03 108.3-22.71Q108.3-21.66 108.74-21.17L108.74-21.17Q109.47-20.36 111.27-19.46L111.27-19.46Q109.3-18.38 108.91-17.97L108.91-17.97Q108.3-17.31 108.3-16.24L108.3-16.24 108.74-3.83Q109.61-2.22 111.49-2.22L111.49-2.22Q112.32-2.22 112.86-2.64L112.86-2.64Q113.13-2.27 113.13-1.78 113.13-1.29 112.89-0.88 112.64-0.46 112.25-0.15L112.25-0.15Q111.4 0.49 110.18 0.49 108.95 0.49 107.98 0L107.98 0Q106.05 1.1 104.05-0.17L104.05-0.17Q103.27 0.49 102.56 0.49 101.85 0.49 101.51 0.37 101.17 0.24 100.87-0.07L100.87-0.07Q100.41-0.54 99.43-2.39L99.43-2.39 84.42-28.27 84.42-4.3Q85.42-2.22 86.96-2.22 88.5-2.22 89.2-2.64L89.2-2.64Q89.47-2.2 89.47-1.43 89.47-0.66 88.72-0.09 87.96 0.49 86.76 0.49 85.57 0.49 84.57-0.12L84.57-0.12Q83.69 0.49 82.55 0.49 81.42 0.49 80.61-0.17ZM89.57-24.24L99.7-6.47Q99.87-6.69 99.87-7.17 99.87-7.64 99.74-8.24 99.6-8.84 99.36-9.52L99.36-9.52Q98.85-10.89 98.02-12.45L98.02-12.45 87.67-30.52Q87.5-30.25 87.5-29.54L87.5-29.54Q87.5-28.03 89.57-24.24L89.57-24.24ZM128.68-0.29L128.68-0.29Q127.43 0.49 125.85 0.49 124.26 0.49 123.01-0.29L123.01-0.29Q121.77 0.49 120.71 0.49 119.65 0.49 118.96 0.31 118.28 0.12 117.77-0.2L117.77-0.2Q116.72-0.83 116.72-1.78L116.72-1.78Q116.72-2.27 116.98-2.64L116.98-2.64Q117.52-2.22 118.35-2.22L118.35-2.22Q120.52-2.22 121.35-4.08L121.35-4.08 121.35-16.02Q121.35-17.14 120.89-17.68L120.89-17.68Q120.16-18.58 118.38-19.46L118.38-19.46Q120.04-20.21 120.52-20.8L120.52-20.8Q121.35-21.75 121.35-22.95L121.35-22.95 121.35-33.25Q120.52-35.13 118.35-35.13L118.35-35.13Q117.52-35.13 116.98-34.72L116.98-34.72Q116.72-35.08 116.72-35.56 116.72-36.04 117-36.45 117.28-36.87 117.77-37.16L117.77-37.16Q118.89-37.84 120.34-37.84 121.79-37.84 123.01-37.04L123.01-37.04Q124.28-37.84 125.85-37.84 127.41-37.84 128.68-37.04L128.68-37.04Q129.9-37.84 130.97-37.84 132.05-37.84 132.73-37.66 133.42-37.48 133.93-37.16L133.93-37.16Q134.98-36.52 134.98-35.57L134.98-35.57Q134.98-35.08 134.71-34.72L134.71-34.72Q134.17-35.13 133.34-35.13L133.34-35.13Q131.17-35.13 130.34-33.25L130.34-33.25 130.34-22.95Q130.34-21.75 130.85-21.17L130.85-21.17Q131.66-20.21 133.32-19.46L133.32-19.46Q131.54-18.58 131.05-18.02L131.05-18.02Q130.34-17.14 130.34-16.02L130.34-16.02 130.34-4.08Q131.17-2.22 133.34-2.22L133.34-2.22Q134.17-2.22 134.71-2.64L134.71-2.64Q134.98-2.27 134.98-1.79 134.98-1.32 134.7-0.9 134.42-0.49 133.93-0.2L133.93-0.2Q132.81 0.49 131.36 0.49 129.92 0.49 128.68-0.29ZM123.7-9.64L123.7-6.47Q124.92-6.93 125.04-9.67L125.04-9.67Q125.19-12.4 125.19-17.24 125.19-22.07 125.18-23.67 125.16-25.27 125.14-26.25L125.14-26.25Q125.07-29.13 124.59-29.72 124.11-30.32 123.7-30.52L123.7-30.52Q123.7-22.02 123.41-20.85L123.41-20.85Q123.06-19.87 121.75-19.46L121.75-19.46Q123.21-18.95 123.41-18.21L123.41-18.21Q123.7-17.04 123.7-9.64L123.7-9.64ZM147.79 0.49L147.79 0.49Q146.18 0.49 144.94-0.29L144.94-0.29Q143.69 0.49 142.63 0.49 141.57 0.49 140.88 0.31 140.2 0.12 139.69-0.2L139.69-0.2Q138.64-0.83 138.64-1.78L138.64-1.78Q138.64-2.27 138.91-2.64L138.91-2.64Q139.44-2.22 140.27-2.22L140.27-2.22Q142.45-2.22 143.28-4.08L143.28-4.08 143.28-16.02Q143.28-17.14 142.81-17.68L142.81-17.68Q142.08-18.58 140.3-19.46L140.3-19.46Q141.96-20.21 142.45-20.8L142.45-20.8Q143.28-21.75 143.28-22.95L143.28-22.95 143.28-33.25Q142.45-35.13 140.27-35.13L140.27-35.13Q139.44-35.13 138.91-34.72L138.91-34.72Q138.64-35.08 138.64-35.56 138.64-36.04 138.92-36.45 139.2-36.87 139.69-37.16L139.69-37.16Q140.81-37.84 142.26-37.84 143.72-37.84 144.94-37.04L144.94-37.04Q146.21-37.84 147.84-37.84 149.48-37.84 150.82-36.89L150.82-36.89Q153.41-37.84 156.8-37.84L156.8-37.84Q159.32-37.84 161.1-37.35L161.1-37.35 163.27-36.77Q163.66-36.67 164.03-36.67L164.03-36.67Q164.71-36.67 164.71-37.65L164.71-37.65Q164.71-37.89 164.54-38.48L164.54-38.48Q165.22-38.6 166.27-38.6 167.32-38.6 168.06-37.9 168.79-37.21 168.79-35.9 168.79-34.59 168.32-33.98L168.32-33.98Q168.98-33.01 168.98-31.6 168.98-30.2 168.03-29.25L168.03-29.25Q168.32-28.52 168.32-27.82 168.32-27.12 168.09-26.55 167.86-25.98 167.52-25.59L167.52-25.59Q166.84-24.88 166.13-24.88L166.13-24.88Q165.1-24.88 164.27-25.32L164.27-25.32Q164.57-25.9 164.57-27.05L164.57-27.05Q164.57-29.74 163.22-31.76L163.22-31.76Q161.39-34.55 157.73-34.55L157.73-34.55Q155.87-34.55 154.37-33.64 152.87-32.74 152.26-31.05L152.26-31.05 152.26-21.61Q153.12-21.07 153.86-21.07 154.6-21.07 154.98-21.09 155.36-21.12 155.75-21.19L155.75-21.19Q156.75-21.34 157.29-21.58L157.29-21.58Q158.32-22.07 158.32-23.97L158.32-23.97Q158.32-25.05 157.8-25.63L157.8-25.63Q158.29-25.98 159.02-25.98L159.02-25.98Q160.66-25.98 161.39-24.66L161.39-24.66Q161.66-24.19 161.66-23.63 161.66-23.07 161.37-22.24L161.37-22.24Q162.37-21.09 162.37-19.52 162.37-17.94 161.37-16.8L161.37-16.8Q161.66-15.97 161.66-15.3 161.66-14.62 161.39-14.01 161.12-13.4 160.73-13.04L160.73-13.04Q159.98-12.35 159.02-12.35L159.02-12.35Q158.34-12.35 157.8-12.74L157.8-12.74Q158.32-13.6 158.32-14.75L158.32-14.75Q158.32-17.02 157.07-17.55L157.07-17.55Q155.97-17.99 154.56-17.99 153.14-17.99 152.26-17.48L152.26-17.48 152.26-5.27Q153.68-2.78 157.73-2.78L157.73-2.78Q162.32-2.78 163.98-5.62L163.98-5.62Q165.91-8.86 165.91-12.57L165.91-12.57Q165.91-13.65 165.71-14.23L165.71-14.23Q166.32-14.84 166.98-14.84 167.64-14.84 167.98-14.66 168.32-14.48 168.59-14.21L168.59-14.21Q169.18-13.55 169.18-12.87L169.18-12.87 169.03-11.67Q169.03-11.21 169.28-10.91L169.28-10.91Q169.77-10.4 169.77-9.95 169.77-9.5 169.47-8.86L169.47-8.86Q170.03-8.54 170.49-7.92 170.94-7.3 170.94-6.64L170.94-6.64Q170.94-5.25 169.77-4.15L169.77-4.15Q170.28-3.42 170.28-2.04 170.28-0.66 169.48 0.31 168.69 1.27 167.42 1.27L167.42 1.27Q166.74 1.27 166.01 1.12L166.01 1.12Q166.1 0.59 166.1 0.05L166.1 0.05Q166.1-1.07 165.08-1.07L165.08-1.07Q163.93-1.07 162.78-0.61L162.78-0.61Q160.07 0.49 156.62 0.49 153.16 0.49 150.75-0.42L150.75-0.42Q149.48 0.49 147.79 0.49ZM145.62-9.64L145.62-6.47Q146.84-6.93 146.96-9.67L146.96-9.67Q147.11-12.4 147.11-17.24 147.11-22.07 147.1-23.67 147.08-25.27 147.06-26.25L147.06-26.25Q146.99-29.13 146.51-29.72 146.03-30.32 145.62-30.52L145.62-30.52Q145.62-22.02 145.33-20.85L145.33-20.85Q144.99-19.87 143.67-19.46L143.67-19.46Q145.13-18.95 145.33-18.21L145.33-18.21Q145.62-17.04 145.62-9.64L145.62-9.64ZM151.8-6.59L151.77-6.71Q151.77-6.64 151.8-6.59L151.8-6.59ZM182.97 0.49L182.97 0.49Q181.36 0.49 180.11-0.29L180.11-0.29Q178.87 0.49 177.81 0.49 176.75 0.49 176.06 0.31 175.38 0.12 174.87-0.2L174.87-0.2Q173.82-0.83 173.82-1.78L173.82-1.78Q173.82-2.27 174.08-2.64L174.08-2.64Q174.62-2.22 175.45-2.22L175.45-2.22Q177.62-2.22 178.45-4.08L178.45-4.08 178.45-16.02Q178.45-17.14 177.99-17.68L177.99-17.68Q177.26-18.58 175.48-19.46L175.48-19.46Q177.14-20.21 177.62-20.8L177.62-20.8Q178.45-21.75 178.45-22.95L178.45-22.95 178.45-33.25Q177.62-35.13 175.45-35.13L175.45-35.13Q174.62-35.13 174.08-34.72L174.08-34.72Q173.82-35.08 173.82-35.56 173.82-36.04 174.1-36.45 174.38-36.87 174.87-37.16L174.87-37.16Q175.99-37.84 177.44-37.84 178.89-37.84 180.11-37.04L180.11-37.04Q181.38-37.84 182.95-37.84 184.51-37.84 185.78-37.04L185.78-37.04Q187.15-37.84 188.27-37.84 189.39-37.84 190.08-37.66 190.76-37.48 191.27-37.16L191.27-37.16Q192.32-36.52 192.32-35.57L192.32-35.57Q192.32-35.08 192.05-34.72L192.05-34.72Q191.52-35.13 190.61-35.13 189.71-35.13 188.79-34.66 187.88-34.18 187.44-33.23L187.44-33.23 187.44-22.95Q187.44-21.75 187.95-21.17L187.95-21.17Q188.76-20.21 190.42-19.46L190.42-19.46Q188.63-18.58 188.15-18.02L188.15-18.02Q187.44-17.14 187.44-16.02L187.44-16.02 187.44-5.35Q189.05-2.78 191.47-2.78L191.47-2.78Q197.45-2.78 199.16-7.86L199.16-7.86Q199.91-10.11 199.91-11.98 199.91-13.84 199.4-14.48L199.4-14.48Q199.96-14.94 200.56-14.94 201.16-14.94 201.67-14.7 202.18-14.45 202.6-13.96L202.6-13.96Q203.45-12.96 203.45-11.6 203.45-10.23 203.23-9.5L203.23-9.5Q204.36-8.57 204.36-6.88 204.36-5.2 203.41-4.15L203.41-4.15Q204.21-3.13 204.21-2.29 204.21-1.46 203.98-0.87 203.75-0.27 203.33 0.2L203.33 0.2Q202.4 1.15 201.11 1.15L201.11 1.15Q200.48 1.15 199.94 0.88L199.94 0.88Q200.04 0.34 200.04-0.2L200.04-0.2Q200.04-1.32 199.01-1.32L199.01-1.32Q198.25-1.32 196.91-0.71L196.91-0.71Q194.32 0.49 191.02 0.49 187.71 0.49 185.85-0.37L185.85-0.37Q184.58 0.49 182.97 0.49ZM180.8-9.64L180.8-6.47Q182.02-6.93 182.14-9.67L182.14-9.67Q182.29-12.4 182.29-17.24 182.29-22.07 182.28-23.67 182.26-25.27 182.24-26.25L182.24-26.25Q182.17-29.13 181.69-29.72 181.21-30.32 180.8-30.52L180.8-30.52Q180.8-22.02 180.51-20.85L180.51-20.85Q180.16-19.87 178.84-19.46L178.84-19.46Q180.31-18.95 180.51-18.21L180.51-18.21Q180.8-17.04 180.8-9.64L180.8-9.64Z" opacity="1" transform="matrix(1,0,0,1,0,0)" fill="#ffffff" class="wordmark-text-0" data-fill-palette-color="quaternary" id="text-0"></path></svg></g></svg></g></svg></g></svg></g><g transform="matrix(1,0,0,1,58.439864022923594,0)"><svg viewBox="0 0 75.12027195415281 120.39215659530699" height="120.39215659530699" width="75.12027195415281"><g><svg xmlns="http://www.w3.org/2000/svg" data-name="Layer 1" viewBox="28.749688882159585 15.946191002099948 42.50674797426545 68.12380899790004" x="0" y="0" height="120.39215659530699" width="75.12027195415281" class="icon-icon-0" data-fill-palette-color="accent" id="icon-0"><path class="cls-1" d="M47.76 27.35a1.28 1.28 0 0 0 0.39 0.06 1.3 1.3 0 0 0 1.24-0.91l2.81-8.88a1.3 1.3 0 0 0-2.48-0.78l-2.81 8.88A1.3 1.3 0 0 0 47.76 27.35Z" fill="#8d021f" data-fill-palette-color="accent"></path><path class="cls-1" d="M60.84 72.48a1.3 1.3 0 0 0 1.3 1.23h0.07a1.3 1.3 0 0 0 1.23-1.36c0-0.81-1.13-19.27-13.19-25.3a19.28 19.28 0 0 0-0.53-13.31c3.59 0.56 10.09 2.6 10.09 10.17a1.3 1.3 0 0 0 2.6 0c0-10.23-9.73-13-14.93-13-1.09-0.09-13.87-0.8-17.42 11.54A1.3 1.3 0 0 0 31 44.08a1.3 1.3 0 0 0 1.61-0.89c2.7-9.39 11.63-9.79 14.1-9.71 4.42 7.58-0.33 16.43-0.38 16.52l0 0.1s0 0.07-0.05 0.11S42.27 61.7 34.38 64a1.3 1.3 0 0 0 0.37 2.55 1.28 1.28 0 0 0 0.37-0.05c8.83-2.61 13-14 13.51-15.36 0.12-0.23 0.41-0.8 0.75-1.63C59.8 55.07 60.83 72.3 60.84 72.48Z" fill="#8d021f" data-fill-palette-color="accent"></path><path class="cls-1" d="M71.24 77.32a1.3 1.3 0 0 0-1.48-1.09l-13.5 2.08a1.3 1.3 0 0 0 0.2 2.58l0.2 0 13.5-2.08A1.3 1.3 0 0 0 71.24 77.32Z" fill="#8d021f" data-fill-palette-color="accent"></path><path class="cls-1" d="M68.34 80.05L59 81.49a1.3 1.3 0 0 0 0.2 2.58l0.2 0 9.36-1.44a1.3 1.3 0 1 0-0.39-2.57Z" fill="#8d021f" data-fill-palette-color="accent"></path><path class="cls-1" d="M43.61 72.32L30.37 69a1.3 1.3 0 0 0-0.64 2.52L43 74.85a1.33 1.33 0 0 0 0.32 0 1.3 1.3 0 0 0 0.32-2.56Z" fill="#8d021f" data-fill-palette-color="accent"></path><path class="cls-1" d="M40.63 75.15l-9-2.29A1.3 1.3 0 0 0 31 75.38l9 2.29a1.33 1.33 0 0 0 0.32 0 1.3 1.3 0 0 0 0.32-2.56Z" fill="#8d021f" data-fill-palette-color="accent"></path></svg></g></svg></g><g></g></svg></g></svg></g></svg></g><defs></defs></svg><rect width="320" height="360" fill="none" stroke="none" visibility="hidden"></rect></g></svg></g></svg>